<mxfile host="app.diagrams.net" agent="Mozilla/5.0 (Windows NT 10.0; Win64; x64) AppleWebKit/537.36 (KHTML, like Gecko) Chrome/130.0.0.0 Safari/537.36 Edg/130.0.0.0" version="24.8.4">
  <diagram name="Страница — 1" id="51GGfHG4eVZg8WluLbP5">
    <mxGraphModel dx="-548" dy="611" grid="1" gridSize="10" guides="1" tooltips="1" connect="1" arrows="1" fold="1" page="1" pageScale="1" pageWidth="827" pageHeight="1169" math="0" shadow="0">
      <root>
        <mxCell id="0" />
        <mxCell id="1" parent="0" />
        <mxCell id="9O3gOZ1xm4PGQMF4qQMg-1" value="11" style="strokeWidth=2;html=1;shape=mxgraph.flowchart.start_2;whiteSpace=wrap;fontFamily=Times New Roman;fontSize=12;" parent="1" vertex="1">
          <mxGeometry x="1960" y="40" width="40" height="40" as="geometry" />
        </mxCell>
        <mxCell id="9O3gOZ1xm4PGQMF4qQMg-2" value="" style="endArrow=classic;html=1;rounded=0;exitX=0.5;exitY=1;exitDx=0;exitDy=0;exitPerimeter=0;entryX=0.5;entryY=0;entryDx=0;entryDy=0;fontFamily=Times New Roman;fontSize=12;" parent="1" source="9O3gOZ1xm4PGQMF4qQMg-1" target="9O3gOZ1xm4PGQMF4qQMg-3" edge="1">
          <mxGeometry width="50" height="50" relative="1" as="geometry">
            <mxPoint x="1710" y="850" as="sourcePoint" />
            <mxPoint x="1980" y="130" as="targetPoint" />
          </mxGeometry>
        </mxCell>
        <mxCell id="9O3gOZ1xm4PGQMF4qQMg-3" value="output:&amp;nbsp;deviation" style="shape=parallelogram;html=1;strokeWidth=2;perimeter=parallelogramPerimeter;whiteSpace=wrap;rounded=1;arcSize=12;size=0.23;fontFamily=Times New Roman;fontSize=12;" parent="1" vertex="1">
          <mxGeometry x="1920" y="120" width="120" height="80" as="geometry" />
        </mxCell>
        <mxCell id="9O3gOZ1xm4PGQMF4qQMg-4" value="end" style="strokeWidth=2;html=1;shape=mxgraph.flowchart.start_1;whiteSpace=wrap;fontFamily=Times New Roman;fontSize=12;" parent="1" vertex="1">
          <mxGeometry x="1920" y="280" width="120" height="80" as="geometry" />
        </mxCell>
        <mxCell id="9O3gOZ1xm4PGQMF4qQMg-5" value="" style="endArrow=classic;html=1;rounded=0;exitX=0.5;exitY=1;exitDx=0;exitDy=0;entryX=0.5;entryY=0;entryDx=0;entryDy=0;entryPerimeter=0;fontFamily=Times New Roman;fontSize=12;" parent="1" source="9O3gOZ1xm4PGQMF4qQMg-3" target="9O3gOZ1xm4PGQMF4qQMg-4" edge="1">
          <mxGeometry width="50" height="50" relative="1" as="geometry">
            <mxPoint x="1940" y="120" as="sourcePoint" />
            <mxPoint x="1990" y="70" as="targetPoint" />
          </mxGeometry>
        </mxCell>
        <mxCell id="9O3gOZ1xm4PGQMF4qQMg-6" value="12" style="strokeWidth=2;html=1;shape=mxgraph.flowchart.start_2;whiteSpace=wrap;fontFamily=Times New Roman;fontSize=12;" parent="1" vertex="1">
          <mxGeometry x="2140" y="40" width="40" height="40" as="geometry" />
        </mxCell>
        <mxCell id="9O3gOZ1xm4PGQMF4qQMg-7" value="" style="endArrow=classic;html=1;rounded=0;entryX=0.5;entryY=0;entryDx=0;entryDy=0;entryPerimeter=0;exitX=0.417;exitY=1;exitDx=0;exitDy=0;exitPerimeter=0;fontFamily=Times New Roman;fontSize=12;" parent="1" source="9O3gOZ1xm4PGQMF4qQMg-8" target="9O3gOZ1xm4PGQMF4qQMg-4" edge="1">
          <mxGeometry width="50" height="50" relative="1" as="geometry">
            <mxPoint x="2160" y="200" as="sourcePoint" />
            <mxPoint x="1080" y="540" as="targetPoint" />
            <Array as="points">
              <mxPoint x="2150" y="240" />
              <mxPoint x="1980" y="240" />
            </Array>
          </mxGeometry>
        </mxCell>
        <mxCell id="9O3gOZ1xm4PGQMF4qQMg-8" value="error: n &amp;gt; 13" style="shape=parallelogram;html=1;strokeWidth=2;perimeter=parallelogramPerimeter;whiteSpace=wrap;rounded=1;arcSize=12;size=0.23;fontFamily=Times New Roman;fontSize=12;" parent="1" vertex="1">
          <mxGeometry x="2100" y="120" width="120" height="80" as="geometry" />
        </mxCell>
        <mxCell id="9O3gOZ1xm4PGQMF4qQMg-9" value="" style="endArrow=classic;html=1;rounded=0;exitX=0.5;exitY=1;exitDx=0;exitDy=0;exitPerimeter=0;entryX=0.5;entryY=0;entryDx=0;entryDy=0;fontFamily=Times New Roman;fontSize=12;" parent="1" source="9O3gOZ1xm4PGQMF4qQMg-6" target="9O3gOZ1xm4PGQMF4qQMg-8" edge="1">
          <mxGeometry width="50" height="50" relative="1" as="geometry">
            <mxPoint x="1990" y="90" as="sourcePoint" />
            <mxPoint x="1990" y="130" as="targetPoint" />
          </mxGeometry>
        </mxCell>
      </root>
    </mxGraphModel>
  </diagram>
</mxfile>
